<?xml version="1.0" encoding="UTF-8"?>
<svg id="Layer_1" data-name="Layer 1" xmlns="http://www.w3.org/2000/svg" viewBox="0 0 764.15 870.52">
  <defs>
    <style>
      .cls-1 {
        fill: #fbb613;
      }
    </style>
  </defs>
  <path class="cls-1" d="M67.9,868.08l194.67-333.5L13.49,124.99C-16.41,79.09,4.79,18.06,63.36,14.04c31.98-2.2,70.34-.73,102.99-1.01,63.17-.54,126.38.5,189.54.05l-78.65,166.49,103.16,168.52,2.32-1.68c60.27-98.69,117.75-199.16,178.36-297.64,10.29-16.72,22.85-45.56,44.32-47.68,21.39-2.11,52.85-.59,75.03-.05,33.5.81,72.06-.22,81.99,40.01,3.44,223.6.44,447.76,1.51,671.58-3.27,79.12-52.54,151.61-136.5,156.5-76.44,4.46-157.17-3.42-234.05-.04l-3.48-.99c5.34-1.29,10.2-3.98,15.01-6.49,82.2-42.92,145.1-115.19,184.84-198.16,6.3-13.15,11.52-28.47,17.97-41.03,9.34-18.19,28.93-23.67,47.18-29.32V191.08L223.4,868.08H67.9Z"/>
</svg>